<svg xmlns="http://www.w3.org/2000/svg" width="46" height="54" viewBox="0 0 46 54" fill="none">
  <g clip-path="url(#clip0_158_103)">
    <path d="M22.8968 51.2836C16.4473 51.2836 2.1377 36.8699 2.1377 19.7564C2.1377 8.79055 11.4319 -0.098938 22.8968 -0.098938C34.3618 -0.098938 43.656 8.79055 43.656 19.7564C43.656 36.8699 29.3464 51.2836 22.8968 51.2836Z" fill="url(#paint0_linear_158_103)"/>
    <path d="M22.8965 26.743C26.9308 26.743 30.2012 23.615 30.2012 19.7564C30.2012 15.8977 26.9308 12.7697 22.8965 12.7697C18.8622 12.7697 15.5918 15.8977 15.5918 19.7564C15.5918 23.615 18.8622 26.743 22.8965 26.743Z" fill="white"/>
    <path d="M15.2381 34.134C17.2497 34.134 18.8805 32.5742 18.8805 30.6502C18.8805 28.7261 17.2497 27.1664 15.2381 27.1664C13.2265 27.1664 11.5957 28.7261 11.5957 30.6502C11.5957 32.5742 13.2265 34.134 15.2381 34.134Z" fill="white"/>
    <path d="M18.8802 30.6502C18.8802 31.7969 17.9083 32.7265 16.7094 32.7265C15.5105 32.7265 14.5386 31.7969 14.5386 30.6502C14.5386 29.5034 15.5105 28.5739 16.7094 28.5739C17.9083 28.5737 18.8802 29.5033 18.8802 30.6502Z" fill="#3B3B44"/>
    <path d="M30.556 34.134C32.5676 34.134 34.1984 32.5742 34.1984 30.6502C34.1984 28.7261 32.5676 27.1664 30.556 27.1664C28.5443 27.1664 26.9136 28.7261 26.9136 30.6502C26.9136 32.5742 28.5443 34.134 30.556 34.134Z" fill="white"/>
    <path d="M34.1908 30.6502C34.1908 31.7969 33.2189 32.7265 32.02 32.7265C30.821 32.7265 29.8491 31.7969 29.8491 30.6502C29.8491 29.5034 30.821 28.5739 32.02 28.5739C33.2189 28.5737 34.1908 29.5033 34.1908 30.6502Z" fill="#3B3B44"/>
    <path d="M22.8968 35.3321C23.7969 35.3321 24.5265 34.4183 24.5265 33.2911C24.5265 32.1639 23.7969 31.2501 22.8968 31.2501C21.9967 31.2501 21.2671 32.1639 21.2671 33.2911C21.2671 34.4183 21.9967 35.3321 22.8968 35.3321Z" fill="white"/>
    <path d="M26.5667 47.0234C26.1936 47.0234 25.8249 46.8615 25.5833 46.5544C25.1749 46.0355 25.2834 45.2979 25.8263 44.9073C26.7596 44.2353 27.7248 43.4042 28.6955 42.4368C29.1657 41.9681 29.9444 41.9527 30.4343 42.4026C30.9244 42.8524 30.9404 43.597 30.4701 44.0657C29.4085 45.1237 28.3438 46.0392 27.3055 46.7868C27.0839 46.9462 26.8241 47.0234 26.5667 47.0234Z" fill="#E3FCFF"/>
    <path d="M32.7517 40.7742C32.5027 40.7742 32.2513 40.7021 32.0338 40.552C31.4828 40.1721 31.358 39.437 31.7551 38.9101C31.9076 38.7076 32.0637 38.4957 32.2189 38.2801C32.604 37.7449 33.3695 37.6098 33.9291 37.9782C34.4886 38.3465 34.63 39.0788 34.2448 39.614C34.0797 39.8435 33.9133 40.0695 33.7504 40.2856C33.5101 40.6045 33.1336 40.7742 32.7517 40.7742Z" fill="#E3FCFF"/>
  </g>
  <defs>
    <linearGradient id="paint0_linear_158_103" x1="22.8968" y1="51.6191" x2="22.8968" y2="-10.1513" gradientUnits="userSpaceOnUse">
      <stop stop-color="#FF455E"/>
      <stop offset="1" stop-color="#FF919F"/>
    </linearGradient>
    <clipPath id="clip0_158_103">
      <rect width="45.2728" height="53.1429" fill="white" transform="translate(0.260742)"/>
    </clipPath>
  </defs>
</svg>